<mxfile host="app.diagrams.net" modified="2023-10-02T09:36:38.941Z" agent="Mozilla/5.0 (Windows NT 10.0; Win64; x64) AppleWebKit/537.36 (KHTML, like Gecko) Chrome/117.0.0.0 Safari/537.36 Edg/117.0.2045.47" version="22.0.0" etag="gJpS8Ki3SeSvJ5YP_Ymg" type="github">
  <diagram name="Сторінка-1" id="J5Wa-fW39zGjhWgexkrX">
    <mxGraphModel>
      <root>
        <mxCell id="0" />
        <mxCell id="1" parent="0" />
      </root>
    </mxGraphModel>
  </diagram>
</mxfile>
